<?xml version="1.0" encoding="utf-8"?>
<!-- Generator: Adobe Illustrator 25.0.0, SVG Export Plug-In . SVG Version: 6.00 Build 0)  -->
<svg version="1.1"
	 id="svg2" sodipodi:docname="Logo.svg" xmlns:cc="http://creativecommons.org/ns#" xmlns:dc="http://purl.org/dc/elements/1.1/" xmlns:inkscape="http://www.inkscape.org/namespaces/inkscape" xmlns:rdf="http://www.w3.org/1999/02/22-rdf-syntax-ns#" xmlns:sodipodi="http://sodipodi.sourceforge.net/DTD/sodipodi-0.dtd" xmlns:svg="http://www.w3.org/2000/svg"
	 xmlns="http://www.w3.org/2000/svg" xmlns:xlink="http://www.w3.org/1999/xlink" x="0px" y="0px" viewBox="0 0 424.5 169.2"
	 style="enable-background:new 0 0 424.5 169.2;" xml:space="preserve">
<style type="text/css">
	.st0{fill:url(#path50_1_);}
	.st1{fill:url(#path70_1_);}
	.st2{fill:url(#path90_1_);}
	.st3{fill:url(#path110_1_);}
	.st4{clip-path:url(#SVGID_2_);}
	.st5{fill:url(#path130_1_);}
	.st6{clip-path:url(#SVGID_4_);}
	.st7{fill:url(#path150_1_);}
	.st8{clip-path:url(#SVGID_6_);}
	.st9{fill:url(#path170_1_);}
	.st10{clip-path:url(#SVGID_8_);}
	.st11{fill:url(#path190_1_);}
	.st12{clip-path:url(#SVGID_10_);}
	.st13{fill:url(#path210_1_);}
	.st14{fill:url(#SVGID_11_);}
	.st15{fill:url(#SVGID_12_);}
	.st16{fill:url(#SVGID_13_);}
	.st17{fill:url(#SVGID_14_);}
</style>
<sodipodi:namedview  bordercolor="#666666" borderopacity="1" gridtolerance="10" guidetolerance="10" id="namedview3364" inkscape:current-layer="g12" inkscape:cx="212.24867" inkscape:cy="84.575996" inkscape:pageopacity="0" inkscape:pageshadow="2" inkscape:window-height="1017" inkscape:window-maximized="1" inkscape:window-width="1920" inkscape:window-x="-8" inkscape:window-y="-8" inkscape:zoom="0.74440984" objecttolerance="10" pagecolor="#ffffff" showgrid="false">
	</sodipodi:namedview>
<g id="g12" transform="matrix(1.3333333,0,0,-1.3333333,0,169.152)">
</g>
<g id="g32" transform="matrix(1.3333333,0,0,-1.3333333,0,169.152)">
	<g id="g34">
		<g id="g40">
			<g id="g42">
				
					<linearGradient id="path50_1_" gradientUnits="userSpaceOnUse" x1="-63.3133" y1="-250.8269" x2="-62.3133" y2="-250.8269" gradientTransform="matrix(145.963 0 0 -145.963 9244.6543 -36560.1562)">
					<stop  offset="0" style="stop-color:#7F00FF"/>
					<stop  offset="1" style="stop-color:#E100FF"/>
				</linearGradient>
				<path id="path50" inkscape:connector-curvature="0" class="st0" d="M93.8,102.6L16,101.1c-4.4-0.2-8.6-2.6-11-6.7l0,0
					c-2.4-4.1-2.3-9-0.3-12.9l0,0L46,6.9c1.2-2,2.9-3.8,5.1-5.1l0,0C57.7-2,66.2,0.3,70,7l0,0l38.6,66.8c1,1.7,0.4,3.9-1.3,4.9l0,0
					c-1.7,1-3.9,0.4-4.9-1.3l0,0L63.9,10.7c-1.9-3.3-6.2-4.5-9.5-2.5l0,0c-1,0.6-1.8,1.3-2.3,2.2l0,0L11.2,85.1
					c-0.2,0.4-0.4,0.9-0.6,1.3l0,0c-0.8,3.1,1,6.3,4.1,7.1l0,0c0.4,0.1,0.9,0.2,1.3,0.2l0,0l78.2,1.8c1.3,0,2.5,0.6,3.2,1.8l0,0
					c1,1.7,0.4,3.9-1.3,4.9l0,0c-0.6,0.3-1.2,0.5-1.8,0.5l0,0C94.2,102.6,94,102.6,93.8,102.6 M106.1,97.9c-1-1.7-0.4-3.9,1.3-4.9
					l0,0c1.7-1,3.9-0.4,4.9,1.3l0,0c1,1.7,0.4,3.9-1.3,4.9l0,0c-0.6,0.3-1.2,0.5-1.8,0.5l0,0C107.9,99.7,106.7,99.1,106.1,97.9"/>
			</g>
		</g>
	</g>
</g>
<g id="g52" transform="matrix(1.3333333,0,0,-1.3333333,0,169.152)">
	<g id="g54">
		<g id="g60">
			<g id="g62">
				
					<linearGradient id="path70_1_" gradientUnits="userSpaceOnUse" x1="-62.0729" y1="-245.9239" x2="-61.0729" y2="-245.9239" gradientTransform="matrix(38.012 0 0 -38.012 2474.144 -9241.3818)">
					<stop  offset="0" style="stop-color:#7F00FF"/>
					<stop  offset="1" style="stop-color:#E100FF"/>
				</linearGradient>
				<path id="path70" inkscape:connector-curvature="0" class="st1" d="M119,126.9c-0.7,0-1.4-0.2-2-0.5l0,0c0,0,0,0,0,0l0,0
					c-0.8-0.5-1.5-1.1-1.9-1.9l0,0l-0.2-0.4c-0.7-1.5,0-3,1.7-3.2l0,0c7.8-1.2,13.8-5,17-10.8l0,0c3.1-5.8,3.1-13-0.2-20.1l0,0
					c-0.7-1.6,0.1-3,1.8-3.2l0,0l0.4-0.1c0.8-0.1,1.8,0.1,2.6,0.5l0,0c0,0,0,0,0,0l0,0c0.8,0.5,1.5,1.1,1.9,1.9l0,0
					c4,8.8,4.1,17.5,0.3,24.6l0,0c-3.8,7.1-11.2,11.8-20.7,13.2l0,0c-0.2,0-0.3,0-0.5,0l0,0L119,126.9z"/>
			</g>
		</g>
	</g>
</g>
<g id="g72" transform="matrix(1.3333333,0,0,-1.3333333,0,169.152)">
	<g id="g74">
		<g id="g80">
			<g id="g82">
				
					<linearGradient id="path90_1_" gradientUnits="userSpaceOnUse" x1="-61.0083" y1="-241.7158" x2="-60.0083" y2="-241.7158" gradientTransform="matrix(23.2523 0 0 -23.2523 1527.6804 -5519.3818)">
					<stop  offset="0" style="stop-color:#7F00FF"/>
					<stop  offset="1" style="stop-color:#E100FF"/>
				</linearGradient>
				<path id="path90" inkscape:connector-curvature="0" class="st2" d="M111.4,111.9C111.3,111.9,111.3,111.9,111.4,111.9
					L111.4,111.9c-0.9-0.5-1.5-1.1-1.9-1.9l0,0l-0.1-0.2c-0.7-1.5,0-3,1.7-3.2l0,0c3.4-0.5,6.1-2.2,7.4-4.8l0,0
					c1.4-2.5,1.3-5.7-0.1-8.8l0,0c-0.7-1.5,0.1-3,1.8-3.2l0,0l0.2,0c0.8-0.1,1.8,0.1,2.6,0.5l0,0c0,0,0,0,0,0l0,0
					c0.8,0.5,1.5,1.1,1.9,1.9l0,0c2.1,4.7,2.2,9.3,0.2,13.1l0,0c-2,3.8-6,6.3-11.1,7.1l0,0c-0.2,0-0.3,0-0.5,0l0,0
					C112.8,112.4,112,112.2,111.4,111.9"/>
			</g>
		</g>
	</g>
</g>
<g id="g92" transform="matrix(1.3333333,0,0,-1.3333333,0,169.152)">
	<g id="g94">
		<g id="g100">
			<g id="g102">
				
					<linearGradient id="path110_1_" gradientUnits="userSpaceOnUse" x1="-63.4735" y1="-251.4772" x2="-62.4735" y2="-251.4772" gradientTransform="matrix(230.5312 0 0 -230.5312 14746.5703 -57935.6797)">
					<stop  offset="0" style="stop-color:#7F00FF"/>
					<stop  offset="1" style="stop-color:#E100FF"/>
				</linearGradient>
				<path id="path110" inkscape:connector-curvature="0" class="st3" d="M114,58.5v-5.2h10.5V16.9h6.3v36.4h10.5v5.2H114z"/>
			</g>
		</g>
	</g>
</g>
<g id="g112" transform="matrix(1.3333333,0,0,-1.3333333,0,169.152)">
	<g>
		<defs>
			<path id="SVGID_1_" d="M165.9,48.1V26.9c0-2.7-2.2-4.8-4.5-4.8l0,0h-5.2c-2.3,0-4.5,2.1-4.5,4.8l0,0v21.2h-5.9V27.3
				c0-5.8,4.7-10.4,10.4-10.4l0,0h5.2c5.7,0,10.4,4.6,10.4,10.4l0,0v20.8L165.9,48.1z"/>
		</defs>
		<clipPath id="SVGID_2_">
			<use xlink:href="#SVGID_1_"  style="overflow:visible;"/>
		</clipPath>
		<g id="g114" class="st4">
			<g id="g120">
				<g id="g122">
					
						<linearGradient id="path130_1_" gradientUnits="userSpaceOnUse" x1="-63.4735" y1="-251.4546" x2="-62.4735" y2="-251.4546" gradientTransform="matrix(230.5312 0 0 -230.5312 14746.5703 -57935.6797)">
						<stop  offset="0" style="stop-color:#7F00FF"/>
						<stop  offset="1" style="stop-color:#E100FF"/>
					</linearGradient>
					<path id="path130" inkscape:connector-curvature="0" class="st5" d="M165.9,48.1V26.9c0-2.7-2.2-4.8-4.5-4.8l0,0h-5.2
						c-2.3,0-4.5,2.1-4.5,4.8l0,0v21.2h-5.9V27.3c0-5.8,4.7-10.4,10.4-10.4l0,0h5.2c5.7,0,10.4,4.6,10.4,10.4l0,0v20.8L165.9,48.1z"
						/>
				</g>
			</g>
		</g>
	</g>
</g>
<g id="g132" transform="matrix(1.3333333,0,0,-1.3333333,0,169.152)">
	<g>
		<defs>
			<path id="SVGID_3_" d="M180.9,48.1V16.9h5.9v26h9.8c2.3,0,4.5-2.1,4.5-4.8l0,0V16.9h5.9v20.8c0,5.8-4.7,10.4-10.4,10.4l0,0
				L180.9,48.1z"/>
		</defs>
		<clipPath id="SVGID_4_">
			<use xlink:href="#SVGID_3_"  style="overflow:visible;"/>
		</clipPath>
		<g id="g134" class="st6">
			<g id="g140">
				<g id="g142">
					
						<linearGradient id="path150_1_" gradientUnits="userSpaceOnUse" x1="-63.4735" y1="-251.4546" x2="-62.4735" y2="-251.4546" gradientTransform="matrix(230.5312 0 0 -230.5312 14746.5703 -57935.6797)">
						<stop  offset="0" style="stop-color:#7F00FF"/>
						<stop  offset="1" style="stop-color:#E100FF"/>
					</linearGradient>
					<path id="path150" inkscape:connector-curvature="0" class="st7" d="M180.9,48.1V16.9h5.9v26h9.8c2.3,0,4.5-2.1,4.5-4.8l0,0
						V16.9h5.9v20.8c0,5.8-4.7,10.4-10.4,10.4l0,0L180.9,48.1z"/>
				</g>
			</g>
		</g>
	</g>
</g>
<g id="g152" transform="matrix(1.3333333,0,0,-1.3333333,0,169.152)">
	<g>
		<defs>
			<path id="SVGID_5_" d="M216,48.1V16.9h5.9v26h10.9v-7.8h5.9v7.8c0,2.9-2.3,5.2-5.2,5.2l0,0H216z"/>
		</defs>
		<clipPath id="SVGID_6_">
			<use xlink:href="#SVGID_5_"  style="overflow:visible;"/>
		</clipPath>
		<g id="g154" class="st8">
			<g id="g160">
				<g id="g162">
					
						<linearGradient id="path170_1_" gradientUnits="userSpaceOnUse" x1="-63.4735" y1="-251.4546" x2="-62.4735" y2="-251.4546" gradientTransform="matrix(230.5312 0 0 -230.5312 14746.5703 -57935.6797)">
						<stop  offset="0" style="stop-color:#7F00FF"/>
						<stop  offset="1" style="stop-color:#E100FF"/>
					</linearGradient>
					<path id="path170" inkscape:connector-curvature="0" class="st9" d="M216,48.1V16.9h5.9v26h10.9v-7.8h5.9v7.8
						c0,2.9-2.3,5.2-5.2,5.2l0,0H216z"/>
				</g>
			</g>
		</g>
	</g>
</g>
<g id="g172" transform="matrix(1.3333333,0,0,-1.3333333,0,169.152)">
	<g>
		<defs>
			<rect id="SVGID_7_" x="244.9" y="9.1" width="7.8" height="62.4"/>
		</defs>
		<clipPath id="SVGID_8_">
			<use xlink:href="#SVGID_7_"  style="overflow:visible;"/>
		</clipPath>
		<g id="g174" class="st10">
			<g id="g180">
				<g id="g182">
					
						<linearGradient id="path190_1_" gradientUnits="userSpaceOnUse" x1="-63.4735" y1="-251.4885" x2="-62.4735" y2="-251.4885" gradientTransform="matrix(230.5312 0 0 -230.5312 14746.5703 -57935.6797)">
						<stop  offset="0" style="stop-color:#7F00FF"/>
						<stop  offset="1" style="stop-color:#E100FF"/>
					</linearGradient>
					<path id="path190" inkscape:connector-curvature="0" class="st11" d="M245.9,16.9h5.9v46.8h-5.9V16.9z"/>
				</g>
			</g>
		</g>
	</g>
</g>
<g id="g192" transform="matrix(1.3333333,0,0,-1.3333333,0,169.152)">
	<g>
		<defs>
			<path id="SVGID_9_" d="M280.9,48.1v-26h-9.7c-2.3,0-4.5,2.1-4.5,4.8l0,0v21.2h-5.9V27.3c0-5.7,4.6-10.4,10.4-10.4l0,0h9.7V9.1
				h-4.1V3.9h4.8c2.9,0,5.2,2.3,5.2,5.2l0,0v39L280.9,48.1z"/>
		</defs>
		<clipPath id="SVGID_10_">
			<use xlink:href="#SVGID_9_"  style="overflow:visible;"/>
		</clipPath>
		<g id="g194" class="st12">
			<g id="g200">
				<g id="g202">
					
						<linearGradient id="path210_1_" gradientUnits="userSpaceOnUse" x1="-63.4735" y1="-251.4264" x2="-62.4735" y2="-251.4264" gradientTransform="matrix(230.5312 0 0 -230.5312 14746.5703 -57935.6797)">
						<stop  offset="0" style="stop-color:#7F00FF"/>
						<stop  offset="1" style="stop-color:#E100FF"/>
					</linearGradient>
					<path id="path210" inkscape:connector-curvature="0" class="st13" d="M280.9,48.1v-26h-9.7c-2.3,0-4.5,2.1-4.5,4.8l0,0v21.2
						h-5.9V27.3c0-5.7,4.6-10.4,10.4-10.4l0,0h9.7V9.1h-4.1V3.9h4.8c2.9,0,5.2,2.3,5.2,5.2l0,0v39L280.9,48.1z"/>
				</g>
			</g>
		</g>
	</g>
</g>
<g>
	<linearGradient id="SVGID_11_" gradientUnits="userSpaceOnUse" x1="315.7979" y1="17.4962" x2="315.7979" y2="40.9571">
		<stop  offset="0" style="stop-color:#7F00FF"/>
		<stop  offset="1" style="stop-color:#E100FF"/>
	</linearGradient>
	<path class="st14" d="M306.7,41V17.5h8.4c3,0,5.3,0.6,6.9,1.7c1.6,1.1,2.4,2.7,2.4,4.8c0,1.2-0.3,2.3-0.8,3.1
		c-0.6,0.9-1.4,1.5-2.5,1.9c1.2,0.3,2.2,0.9,2.8,1.8s1,2,1,3.2c0,2.3-0.7,4-2.2,5.2c-1.5,1.2-3.6,1.7-6.5,1.8H306.7z M312.4,27.3
		h2.9c1.2,0,2.1-0.2,2.6-0.7s0.8-1.1,0.8-2c0-1-0.3-1.7-0.9-2.1c-0.6-0.4-1.5-0.7-2.8-0.7h-2.8V27.3z M312.4,31v5.6h3.7
		c1,0,1.8-0.2,2.4-0.7c0.5-0.5,0.8-1.1,0.8-2c0-2-1-2.9-2.9-2.9H312.4z"/>
	<linearGradient id="SVGID_12_" gradientUnits="userSpaceOnUse" x1="336.0923" y1="17.4962" x2="336.0923" y2="40.9571">
		<stop  offset="0" style="stop-color:#7F00FF"/>
		<stop  offset="1" style="stop-color:#E100FF"/>
	</linearGradient>
	<path class="st15" d="M342.5,31h-8.9v5.6h10.5V41H328V17.5h16.2v4.4h-10.5v4.9h8.9V31z"/>
	<linearGradient id="SVGID_13_" gradientUnits="userSpaceOnUse" x1="355.3965" y1="17.4962" x2="355.3965" y2="40.9571">
		<stop  offset="0" style="stop-color:#7F00FF"/>
		<stop  offset="1" style="stop-color:#E100FF"/>
	</linearGradient>
	<path class="st16" d="M365.2,21.9h-7V41h-5.7V21.9h-6.9v-4.4h19.6V21.9z"/>
	<linearGradient id="SVGID_14_" gradientUnits="userSpaceOnUse" x1="375.127" y1="17.4962" x2="375.127" y2="40.9571">
		<stop  offset="0" style="stop-color:#7F00FF"/>
		<stop  offset="1" style="stop-color:#E100FF"/>
	</linearGradient>
	<path class="st17" d="M379,36.6h-7.8l-1.4,4.4h-6l8.6-23.5h5.3l8.7,23.5h-6.1L379,36.6z M372.6,32.2h5l-2.5-8.1L372.6,32.2z"/>
</g>
</svg>
