<?xml version="1.0" encoding="UTF-8" standalone="no"?>
<svg
   xmlns:dc="http://purl.org/dc/elements/1.1/"
   xmlns:cc="http://creativecommons.org/ns#"
   xmlns:rdf="http://www.w3.org/1999/02/22-rdf-syntax-ns#"
   xmlns:svg="http://www.w3.org/2000/svg"
   xmlns="http://www.w3.org/2000/svg"
   xmlns:sodipodi="http://sodipodi.sourceforge.net/DTD/sodipodi-0.dtd"
   xmlns:inkscape="http://www.inkscape.org/namespaces/inkscape"
   viewBox="0 0 424.49734 169.15199"
   height="169.15199"
   width="424.49734"
   xml:space="preserve"
   id="svg2"
   version="1.1"
   inkscape:version="0.48.5 r10040"
   sodipodi:docname="Logo.svg"><sodipodi:namedview
     pagecolor="#ffffff"
     bordercolor="#666666"
     borderopacity="1"
     objecttolerance="10"
     gridtolerance="10"
     guidetolerance="10"
     inkscape:pageopacity="0"
     inkscape:pageshadow="2"
     inkscape:window-width="1920"
     inkscape:window-height="1017"
     id="namedview3364"
     showgrid="false"
     inkscape:zoom="0.74440984"
     inkscape:cx="212.24867"
     inkscape:cy="84.575996"
     inkscape:window-x="-8"
     inkscape:window-y="-8"
     inkscape:window-maximized="1"
     inkscape:current-layer="g12" /><metadata
     id="metadata8"><rdf:RDF><cc:Work
         rdf:about=""><dc:format>image/svg+xml</dc:format><dc:type
           rdf:resource="http://purl.org/dc/dcmitype/StillImage" /><dc:title></dc:title></cc:Work></rdf:RDF></metadata><defs
     id="defs6"><linearGradient
       id="linearGradient28"
       spreadMethod="pad"
       gradientTransform="matrix(222.6187,222.6187,222.6187,-222.6187,47.877201,-47.877201)"
       gradientUnits="userSpaceOnUse"
       y2="0"
       x2="1"
       y1="0"
       x1="0"><stop
         id="stop24"
         offset="0"
         style="stop-opacity:1;stop-color:#222629" /><stop
         id="stop26"
         offset="1"
         style="stop-opacity:1;stop-color:#343a40" /></linearGradient><linearGradient
       id="linearGradient48"
       spreadMethod="pad"
       gradientTransform="matrix(109.47226,0,0,-109.47226,3.2604558,51.296936)"
       gradientUnits="userSpaceOnUse"
       y2="0"
       x2="1"
       y1="0"
       x1="0"><stop
         id="stop44"
         offset="0"
         style="stop-opacity:1;stop-color:#7f00ff" /><stop
         id="stop46"
         offset="1"
         style="stop-opacity:1;stop-color:#e100ff" /></linearGradient><linearGradient
       id="linearGradient68"
       spreadMethod="pad"
       gradientTransform="matrix(28.50902,0,0,-28.50902,114.62677,106.6835)"
       gradientUnits="userSpaceOnUse"
       y2="0"
       x2="1"
       y1="0"
       x1="0"><stop
         id="stop64"
         offset="0"
         style="stop-opacity:1;stop-color:#7f00ff" /><stop
         id="stop66"
         offset="1"
         style="stop-opacity:1;stop-color:#e100ff" /></linearGradient><linearGradient
       id="linearGradient88"
       spreadMethod="pad"
       gradientTransform="matrix(17.439234,0,0,-17.439234,109.09529,101.06772)"
       gradientUnits="userSpaceOnUse"
       y2="0"
       x2="1"
       y1="0"
       x1="0"><stop
         id="stop84"
         offset="0"
         style="stop-opacity:1;stop-color:#7f00ff" /><stop
         id="stop86"
         offset="1"
         style="stop-opacity:1;stop-color:#e100ff" /></linearGradient><linearGradient
       id="linearGradient108"
       spreadMethod="pad"
       gradientTransform="matrix(172.89844,0,0,-172.89844,113.9502,33.764923)"
       gradientUnits="userSpaceOnUse"
       y2="0"
       x2="1"
       y1="0"
       x1="0"><stop
         id="stop104"
         offset="0"
         style="stop-opacity:1;stop-color:#7f00ff" /><stop
         id="stop106"
         offset="1"
         style="stop-opacity:1;stop-color:#e100ff" /></linearGradient><clipPath
       id="clipPath118"
       clipPathUnits="userSpaceOnUse"><path
         id="path116"
         d="m 165.885,48.065 v -21.19 c 0,-2.731 -2.209,-4.811 -4.484,-4.811 v 0 H 156.2 c -2.274,0 -4.484,2.08 -4.484,4.811 v 0 21.19 H 145.8 v -20.8 c 0,-5.786 4.681,-10.401 10.4,-10.401 v 0 h 5.201 c 5.72,0 10.4,4.615 10.4,10.401 v 0 20.8 z" /></clipPath><linearGradient
       id="linearGradient128"
       spreadMethod="pad"
       gradientTransform="matrix(172.89844,0,0,-172.89844,113.9502,33.764923)"
       gradientUnits="userSpaceOnUse"
       y2="0"
       x2="1"
       y1="0"
       x1="0"><stop
         id="stop124"
         offset="0"
         style="stop-opacity:1;stop-color:#7f00ff" /><stop
         id="stop126"
         offset="1"
         style="stop-opacity:1;stop-color:#e100ff" /></linearGradient><clipPath
       id="clipPath138"
       clipPathUnits="userSpaceOnUse"><path
         id="path136"
         d="M 180.899,48.065 V 16.864 h 5.851 v 26.001 h 9.75 c 2.276,0 4.485,-2.08 4.485,-4.809 v 0 -21.192 h 5.915 v 20.801 c 0,5.785 -4.679,10.4 -10.4,10.4 v 0 z" /></clipPath><linearGradient
       id="linearGradient148"
       spreadMethod="pad"
       gradientTransform="matrix(172.89844,0,0,-172.89844,113.9502,33.764923)"
       gradientUnits="userSpaceOnUse"
       y2="0"
       x2="1"
       y1="0"
       x1="0"><stop
         id="stop144"
         offset="0"
         style="stop-opacity:1;stop-color:#7f00ff" /><stop
         id="stop146"
         offset="1"
         style="stop-opacity:1;stop-color:#e100ff" /></linearGradient><clipPath
       id="clipPath158"
       clipPathUnits="userSpaceOnUse"><path
         id="path156"
         d="M 215.999,48.065 V 16.864 h 5.916 v 26.001 h 10.92 v -7.8 h 5.915 v 7.8 c 0,2.86 -2.274,5.2 -5.2,5.2 v 0 z" /></clipPath><linearGradient
       id="linearGradient168"
       spreadMethod="pad"
       gradientTransform="matrix(172.89844,0,0,-172.89844,113.9502,33.764923)"
       gradientUnits="userSpaceOnUse"
       y2="0"
       x2="1"
       y1="0"
       x1="0"><stop
         id="stop164"
         offset="0"
         style="stop-opacity:1;stop-color:#7f00ff" /><stop
         id="stop166"
         offset="1"
         style="stop-opacity:1;stop-color:#e100ff" /></linearGradient><clipPath
       id="clipPath178"
       clipPathUnits="userSpaceOnUse"><path
         id="path176"
         d="m 245.898,16.864 h 5.851 v 46.802 h -5.851 z" /></clipPath><linearGradient
       id="linearGradient188"
       spreadMethod="pad"
       gradientTransform="matrix(172.89844,0,0,-172.89844,113.9502,33.764923)"
       gradientUnits="userSpaceOnUse"
       y2="0"
       x2="1"
       y1="0"
       x1="0"><stop
         id="stop184"
         offset="0"
         style="stop-opacity:1;stop-color:#7f00ff" /><stop
         id="stop186"
         offset="1"
         style="stop-opacity:1;stop-color:#e100ff" /></linearGradient><clipPath
       id="clipPath198"
       clipPathUnits="userSpaceOnUse"><path
         id="path196"
         d="M 280.933,48.065 V 22.064 h -9.685 c -2.274,0 -4.55,2.08 -4.55,4.811 v 0 21.19 h -5.85 v -20.8 c 0,-5.721 4.615,-10.401 10.4,-10.401 v 0 h 9.685 v -7.8 h -4.094 v -5.2 h 4.81 c 2.86,0 5.2,2.34 5.2,5.2 v 0 39.001 z" /></clipPath><linearGradient
       id="linearGradient208"
       spreadMethod="pad"
       gradientTransform="matrix(172.89844,0,0,-172.89844,113.9502,33.764923)"
       gradientUnits="userSpaceOnUse"
       y2="0"
       x2="1"
       y1="0"
       x1="0"><stop
         id="stop204"
         offset="0"
         style="stop-opacity:1;stop-color:#7f00ff" /><stop
         id="stop206"
         offset="1"
         style="stop-opacity:1;stop-color:#e100ff" /></linearGradient></defs><g
     id="g12"
     transform="matrix(1.3333333,0,0,-1.3333333,0,169.152)" /><g
     id="g32"
     transform="matrix(1.3333333,0,0,-1.3333333,0,169.152)"><g
       id="g34"><g
         id="g40"><g
           id="g42"><path
             inkscape:connector-curvature="0"
             d="M 93.815,102.554 16.036,101.062 C 11.631,100.855 7.417,98.495 5.048,94.394 v 0 C 2.674,90.28 2.745,85.436 4.786,81.516 v 0 L 45.959,6.937 C 47.141,4.9 48.837,3.129 51.022,1.867 v 0 c 6.662,-3.845 15.176,-1.56 19.02,5.098 v 0 l 38.574,66.812 c 0.987,1.709 0.402,3.891 -1.305,4.877 v 0 c -1.709,0.986 -3.892,0.402 -4.879,-1.307 v 0 L 63.934,10.667 C 62.021,7.352 57.778,6.217 54.463,8.132 v 0 c -0.986,0.567 -1.769,1.349 -2.347,2.247 v 0 l -40.904,74.69 c -0.234,0.422 -0.426,0.866 -0.555,1.347 v 0 c -0.831,3.096 1.008,6.279 4.104,7.11 v 0 c 0.438,0.117 0.878,0.168 1.307,0.188 v 0 l 78.177,1.768 c 1.262,-0.026 2.506,0.597 3.18,1.766 v 0 c 0.987,1.71 0.402,3.892 -1.308,4.88 v 0 c -0.555,0.32 -1.16,0.466 -1.758,0.466 v 0 c -0.182,0 -0.364,-0.014 -0.544,-0.04 m 12.255,-4.621 c -0.988,-1.71 -0.403,-3.892 1.306,-4.879 v 0 c 1.706,-0.985 3.892,-0.403 4.879,1.307 v 0 c 0.985,1.707 0.397,3.89 -1.309,4.876 v 0 c -0.564,0.325 -1.178,0.48 -1.784,0.48 v 0 c -1.234,0 -2.432,-0.64 -3.092,-1.784"
             style="fill:url(#linearGradient48);stroke:none"
             id="path50" /></g></g></g></g><g
     id="g52"
     transform="matrix(1.3333333,0,0,-1.3333333,0,169.152)"><g
       id="g54"><g
         id="g60"><g
           id="g62"><path
             inkscape:connector-curvature="0"
             d="m 119.028,126.864 c -0.671,-0.01 -1.383,-0.2 -2.039,-0.548 v 0 c -0.008,-0.005 -0.015,-0.009 -0.022,-0.013 v 0 c -0.837,-0.451 -1.51,-1.127 -1.868,-1.879 v 0 l -0.191,-0.403 c -0.736,-1.544 0.023,-2.985 1.706,-3.242 v 0 c 7.797,-1.183 13.823,-5.035 16.962,-10.848 v 0 c 3.139,-5.812 3.059,-12.961 -0.228,-20.132 v 0 c -0.711,-1.55 0.084,-2.979 1.782,-3.206 v 0 l 0.444,-0.06 c 0.823,-0.11 1.753,0.081 2.588,0.532 v 0 c 0.01,0.005 0.019,0.01 0.027,0.014 v 0 c 0.841,0.462 1.51,1.149 1.859,1.908 v 0 c 4.018,8.756 4.118,17.49 0.281,24.593 v 0 c -3.836,7.102 -11.196,11.806 -20.722,13.246 v 0 c -0.151,0.023 -0.306,0.036 -0.464,0.038 v 0 z"
             style="fill:url(#linearGradient68);stroke:none"
             id="path70" /></g></g></g></g><g
     id="g72"
     transform="matrix(1.3333333,0,0,-1.3333333,0,169.152)"><g
       id="g74"><g
         id="g80"><g
           id="g82"><path
             inkscape:connector-curvature="0"
             d="m 111.355,111.875 c -0.006,-0.003 -0.013,-0.008 -0.02,-0.01 v 0 c -0.84,-0.454 -1.512,-1.133 -1.869,-1.888 v 0 l -0.094,-0.196 c -0.728,-1.542 0.03,-2.98 1.71,-3.235 v 0 c 3.417,-0.518 6.055,-2.206 7.43,-4.751 v 0 c 1.376,-2.548 1.341,-5.679 -0.099,-8.819 v 0 c -0.708,-1.545 0.077,-2.969 1.768,-3.204 v 0 l 0.216,-0.029 c 0.825,-0.116 1.763,0.075 2.602,0.528 v 0 c 0.007,0.004 0.014,0.008 0.02,0.012 v 0 c 0.844,0.46 1.517,1.149 1.867,1.91 v 0 c 2.145,4.674 2.199,9.335 0.151,13.126 v 0 c -2.047,3.79 -5.974,6.301 -11.06,7.068 v 0 c -0.17,0.026 -0.345,0.039 -0.523,0.039 v 0 c -0.69,0 -1.424,-0.191 -2.099,-0.551"
             style="fill:url(#linearGradient88);stroke:none"
             id="path90" /></g></g></g></g><g
     id="g92"
     transform="matrix(1.3333333,0,0,-1.3333333,0,169.152)"><g
       id="g94"><g
         id="g100"><g
           id="g102"><path
             inkscape:connector-curvature="0"
             d="m 113.95,58.466 v -5.2 h 10.531 V 16.864 h 6.305 v 36.402 h 10.465 v 5.2 z"
             style="fill:url(#linearGradient108);stroke:none"
             id="path110" /></g></g></g></g><g
     id="g112"
     transform="matrix(1.3333333,0,0,-1.3333333,0,169.152)"><g
       id="g114"
       clip-path="url(#clipPath118)"><g
         id="g120"><g
           id="g122"><path
             inkscape:connector-curvature="0"
             d="m 165.885,48.065 v -21.19 c 0,-2.731 -2.209,-4.811 -4.484,-4.811 v 0 H 156.2 c -2.274,0 -4.484,2.08 -4.484,4.811 v 0 21.19 H 145.8 v -20.8 c 0,-5.786 4.681,-10.401 10.4,-10.401 v 0 h 5.201 c 5.72,0 10.4,4.615 10.4,10.401 v 0 20.8 z"
             style="fill:url(#linearGradient128);stroke:none"
             id="path130" /></g></g></g></g><g
     id="g132"
     transform="matrix(1.3333333,0,0,-1.3333333,0,169.152)"><g
       id="g134"
       clip-path="url(#clipPath138)"><g
         id="g140"><g
           id="g142"><path
             inkscape:connector-curvature="0"
             d="M 180.899,48.065 V 16.864 h 5.851 v 26.001 h 9.75 c 2.276,0 4.485,-2.08 4.485,-4.809 v 0 -21.192 h 5.915 v 20.801 c 0,5.785 -4.679,10.4 -10.4,10.4 v 0 z"
             style="fill:url(#linearGradient148);stroke:none"
             id="path150" /></g></g></g></g><g
     id="g152"
     transform="matrix(1.3333333,0,0,-1.3333333,0,169.152)"><g
       id="g154"
       clip-path="url(#clipPath158)"><g
         id="g160"><g
           id="g162"><path
             inkscape:connector-curvature="0"
             d="M 215.999,48.065 V 16.864 h 5.916 v 26.001 h 10.92 v -7.8 h 5.915 v 7.8 c 0,2.86 -2.274,5.2 -5.2,5.2 v 0 z"
             style="fill:url(#linearGradient168);stroke:none"
             id="path170" /></g></g></g></g><g
     id="g172"
     transform="matrix(1.3333333,0,0,-1.3333333,0,169.152)"><g
       id="g174"
       clip-path="url(#clipPath178)"><g
         id="g180"><g
           id="g182"><path
             inkscape:connector-curvature="0"
             d="m 245.898,16.864 h 5.851 v 46.802 h -5.851 z"
             style="fill:url(#linearGradient188);stroke:none"
             id="path190" /></g></g></g></g><g
     id="g192"
     transform="matrix(1.3333333,0,0,-1.3333333,0,169.152)"><g
       id="g194"
       clip-path="url(#clipPath198)"><g
         id="g200"><g
           id="g202"><path
             inkscape:connector-curvature="0"
             d="M 280.933,48.065 V 22.064 h -9.685 c -2.274,0 -4.55,2.08 -4.55,4.811 v 0 21.19 h -5.85 v -20.8 c 0,-5.721 4.615,-10.401 10.4,-10.401 v 0 h 9.685 v -7.8 h -4.094 v -5.2 h 4.81 c 2.86,0 5.2,2.34 5.2,5.2 v 0 39.001 z"
             style="fill:url(#linearGradient208);stroke:none"
             id="path210" /></g></g></g></g></svg>