<?xml version="1.0" standalone="no"?>
<!DOCTYPE svg PUBLIC "-//W3C//DTD SVG 20010904//EN"
 "http://www.w3.org/TR/2001/REC-SVG-20010904/DTD/svg10.dtd">
<svg version="1.0" xmlns="http://www.w3.org/2000/svg"
 width="700.000000pt" height="700.000000pt" viewBox="0 0 700.000000 700.000000"
 preserveAspectRatio="xMidYMid meet">
<metadata>
Created by potrace 1.11, written by Peter Selinger 2001-2013
</metadata>
<g transform="translate(0.000000,700.000000) scale(0.100000,-0.100000)"
fill="#000000" stroke="none">
<path d="M5050 5709 c-52 -21 -100 -84 -100 -132 0 -37 38 -64 107 -77 226
-40 425 -163 530 -328 103 -161 129 -321 87 -552 -3 -19 -21 -76 -40 -126 -41
-111 -42 -136 -8 -163 52 -41 151 -20 196 40 40 54 96 219 115 342 13 79 7
269 -12 340 -86 339 -350 575 -727 651 -88 18 -113 19 -148 5z"/>
<path d="M4869 5210 c-71 -21 -126 -97 -108 -149 10 -29 45 -51 79 -51 42 0
136 -45 180 -86 107 -100 131 -222 71 -371 -33 -83 -5 -128 79 -127 62 1 113
32 139 87 114 235 52 488 -150 618 -86 55 -234 95 -290 79z"/>
<path d="M3887 4863 c-1 -1 -175 -4 -387 -8 -212 -3 -464 -8 -560 -10 -96 -2
-317 -6 -490 -10 -689 -12 -878 -16 -951 -20 -258 -14 -455 -228 -445 -483 4
-103 22 -148 158 -392 25 -45 281 -508 325 -587 12 -24 35 -64 49 -90 15 -27
40 -73 57 -103 17 -30 49 -89 72 -130 23 -41 61 -111 85 -155 24 -44 51 -94
61 -112 11 -18 27 -48 37 -65 11 -18 36 -64 56 -103 21 -38 57 -103 81 -145
54 -96 78 -140 182 -330 47 -85 98 -177 113 -205 256 -462 258 -466 323 -519
231 -189 568 -136 726 114 22 34 435 747 571 985 24 42 354 614 376 652 24 41
180 312 215 372 15 25 68 118 119 206 100 172 111 213 75 268 -39 60 -141 72
-188 21 -13 -13 -65 -97 -117 -187 -181 -313 -383 -662 -394 -682 -12 -22
-200 -347 -230 -398 -10 -18 -158 -275 -330 -572 -188 -326 -326 -555 -348
-577 -69 -69 -184 -84 -274 -36 -67 36 -68 37 -216 308 -20 36 -47 85 -60 110
-71 129 -90 162 -111 202 -37 68 -97 177 -139 251 -21 38 -38 70 -38 72 0 2
-17 34 -38 72 -22 37 -58 104 -82 148 -24 44 -52 96 -63 115 -11 19 -98 179
-195 355 -183 335 -199 364 -279 510 -28 50 -66 119 -85 155 -19 36 -44 81
-55 100 -11 19 -57 104 -103 189 -74 137 -83 159 -83 205 0 92 59 174 140 195
21 6 157 13 303 16 146 3 351 8 455 10 105 2 314 7 465 10 151 3 361 8 465 10
105 3 301 7 435 10 681 14 691 15 724 30 71 34 92 144 37 196 -38 37 -58 39
-251 37 -106 -2 -192 -4 -193 -5z"/>
<path d="M4694 4752 c-82 -52 -77 -175 11 -216 41 -20 68 -20 109 -1 80 38 91
156 19 209 -38 28 -101 31 -139 8z"/>
</g>
</svg>
